<?xml version="1.0" encoding="UTF-8"?><svg id="Warstwa_1" xmlns="http://www.w3.org/2000/svg" viewBox="0 0 266.48 167.56"><g isolation="isolate"><g isolation="isolate"><path d="M0,136.19v-17.54c0-2.17.66-3.95,1.98-5.33,1.32-1.38,3.03-2.07,5.13-2.07,2.5,0,4.41,1.15,5.76,3.44.82-1.24,1.7-2.12,2.64-2.65.94-.53,2.1-.79,3.48-.79,2.19,0,3.86.69,5.03,2.07,1.16,1.38,1.75,3.36,1.75,5.95v16.92h-7.24v-15.83c0-.78-.06-1.3-.19-1.56-.12-.26-.38-.38-.76-.38-.71,0-1.07.61-1.07,1.82v15.95h-7.24v-15.83c0-.77-.07-1.29-.2-1.55-.13-.26-.39-.39-.77-.39-.71,0-1.07.65-1.07,1.94v15.83H0Z"/><path d="M38.96,123.98v6.42h-2.09v5.79h-7.24v-15.47c0-2.99.82-5.32,2.45-6.98,1.63-1.66,3.93-2.49,6.89-2.49s4.96.75,6.33,2.25c1.37,1.5,2.05,3.82,2.05,6.96v15.72h-7.24v-15.24c0-.95-.11-1.61-.34-1.98-.23-.37-.63-.55-1.21-.55-1.13,0-1.69.84-1.69,2.53v3.03h2.09Z"/><path d="M58.98,118.4v17.79h-7.24v-24.33h9.29c2.83,0,5.02.7,6.58,2.1,1.73,1.57,2.6,3.56,2.6,5.97s-1.08,4.53-3.23,6.22l4.17,10.04h-7.59l-3.51-7.84v-6.26h.57c1.52,0,2.28-.65,2.28-1.96,0-1.15-.88-1.73-2.64-1.73h-1.28Z"/><path d="M86.56,121.33v5.42h-4.72c-.64,0-1.1.1-1.36.29-.27.19-.4.51-.4.96,0,.51.14.85.41,1.01.27.16.83.24,1.68.24h4.87v6.95h-5.69c-2.67,0-4.72-.64-6.13-1.92-1.41-1.28-2.12-3.12-2.12-5.53v-9.54c0-2.33.67-4.14,2.01-5.42s3.22-1.93,5.64-1.93h6.29v6.99h-4.62c-1.25,0-1.87.4-1.87,1.21,0,.48.15.81.45.99.3.18.83.28,1.59.28h3.99Z"/><path d="M98.41,111.86v24.33h-7.24v-24.33h7.24ZM112.29,111.86l-6.42,11.03,6.38,13.3h-8.13l-5.51-13.44,6.24-10.89h7.43Z"/><path d="M140.3,124.3l7.58.2c-.5,3.92-1.86,6.95-4.07,9.09-2.22,2.14-5.11,3.21-8.67,3.21s-6.66-1.21-9.1-3.65c-2.44-2.43-3.66-5.45-3.66-9.05s1.24-6.67,3.73-9.14c2.49-2.47,5.56-3.71,9.21-3.71s6.58,1.21,8.98,3.64c1.66,1.68,2.84,4.01,3.53,7.01l-7.75.52c-.87-2.66-2.51-3.99-4.94-3.99-1.54,0-2.82.53-3.82,1.6-1,1.07-1.51,2.43-1.51,4.08s.49,2.91,1.48,3.95c.99,1.04,2.23,1.56,3.74,1.56s2.75-.46,3.66-1.37c.91-.91,1.45-2.23,1.61-3.94Z"/><path d="M176.55,111.86v17.52c0,2.19-.66,3.97-1.98,5.35-1.32,1.38-3.02,2.07-5.12,2.07-2.52,0-4.44-1.15-5.78-3.44-.82,1.24-1.7,2.12-2.64,2.65-.94.53-2.1.79-3.48.79-2.19,0-3.86-.69-5.03-2.07-1.16-1.38-1.75-3.36-1.75-5.95v-16.92h7.24v15.83c0,.78.06,1.3.19,1.55s.38.37.76.37c.71,0,1.07-.6,1.07-1.8v-15.95h7.24v15.83c0,.76.06,1.27.2,1.53.13.26.39.39.77.39.71,0,1.07-.64,1.07-1.93v-15.83h7.24Z"/><path d="M188.17,111.86v24.33h-7.24v-24.33h7.24Z"/><path d="M204.57,111.26c3.45,0,6.4,1.25,8.87,3.76,2.47,2.51,3.7,5.51,3.7,9s-1.24,6.57-3.73,9.05-5.5,3.73-9.05,3.73-6.54-1.25-9.04-3.74-3.74-5.51-3.74-9.04,1.26-6.58,3.77-9.05c2.51-2.47,5.59-3.71,9.22-3.71ZM204.36,118.42c-1.49,0-2.75.55-3.8,1.64-1.05,1.09-1.57,2.41-1.57,3.96s.53,2.86,1.58,3.96c1.05,1.09,2.31,1.64,3.79,1.64s2.77-.54,3.81-1.63c1.04-1.09,1.56-2.41,1.56-3.97s-.52-2.88-1.56-3.97c-1.04-1.09-2.31-1.63-3.81-1.63Z"/><path d="M227.78,118.4v17.79h-7.24v-24.33h9.29c2.83,0,5.02.7,6.58,2.1,1.73,1.57,2.6,3.56,2.6,5.97s-1.08,4.53-3.23,6.22l4.17,10.04h-7.59l-3.51-7.84v-6.26h.57c1.52,0,2.28-.65,2.28-1.96,0-1.15-.88-1.73-2.64-1.73h-1.28Z"/><path d="M253.91,111.26c3.45,0,6.4,1.25,8.87,3.76,2.47,2.51,3.7,5.51,3.7,9s-1.24,6.57-3.73,9.05-5.5,3.73-9.05,3.73-6.54-1.25-9.04-3.74-3.74-5.51-3.74-9.04,1.26-6.58,3.77-9.05c2.51-2.47,5.59-3.71,9.22-3.71ZM253.7,118.42c-1.49,0-2.75.55-3.8,1.64-1.05,1.09-1.57,2.41-1.57,3.96s.53,2.86,1.58,3.96c1.05,1.09,2.31,1.64,3.79,1.64s2.77-.54,3.81-1.63c1.04-1.09,1.56-2.41,1.56-3.97s-.52-2.88-1.56-3.97c-1.04-1.09-2.31-1.63-3.81-1.63Z"/></g><g isolation="isolate"><path d="M71.92,151.74h-8.39v6.76h7.38l-.15,1.24h-7.23v7.54h-1.45v-16.79h9.84v1.24Z"/><path d="M77.59,166.46c-1.12-.73-1.98-1.76-2.56-3.07-.59-1.31-.88-2.83-.88-4.56,0-1.93.36-3.54,1.08-4.83.72-1.29,1.66-2.24,2.82-2.86,1.17-.62,2.43-.93,3.8-.93,1.59,0,2.94.37,4.07,1.1,1.12.73,1.98,1.76,2.56,3.07.59,1.31.88,2.83.88,4.56,0,1.93-.35,3.55-1.06,4.84-.71,1.3-1.65,2.25-2.81,2.86-1.17.61-2.44.92-3.82.92-1.59,0-2.94-.37-4.07-1.1ZM85.08,165.38c.93-.63,1.64-1.5,2.12-2.6.48-1.11.71-2.37.71-3.81s-.23-2.74-.68-3.87c-.45-1.13-1.12-2.02-2.02-2.67-.9-.65-2.02-.97-3.35-.97s-2.47.31-3.41.93c-.94.62-1.65,1.49-2.13,2.6-.48,1.11-.71,2.39-.71,3.82s.22,2.72.67,3.86c.45,1.14,1.13,2.03,2.04,2.68.91.65,2.03.97,3.36.97s2.47-.32,3.4-.95Z"/><path d="M103.92,150.49v1.27h-6.06v15.52h-1.45v-15.52h-6.09v-1.27h13.6Z"/><path d="M108.32,166.46c-1.12-.73-1.98-1.76-2.56-3.07-.59-1.31-.88-2.83-.88-4.56,0-1.93.36-3.54,1.08-4.83.72-1.29,1.66-2.24,2.82-2.86,1.17-.62,2.43-.93,3.8-.93,1.59,0,2.94.37,4.07,1.1,1.12.73,1.98,1.76,2.56,3.07.59,1.31.88,2.83.88,4.56,0,1.93-.35,3.55-1.06,4.84-.71,1.3-1.65,2.25-2.81,2.86-1.17.61-2.44.92-3.82.92-1.59,0-2.94-.37-4.07-1.1ZM115.8,165.38c.93-.63,1.64-1.5,2.12-2.6.48-1.11.71-2.37.71-3.81s-.23-2.74-.68-3.87c-.45-1.13-1.12-2.02-2.02-2.67-.9-.65-2.02-.97-3.35-.97s-2.47.31-3.41.93c-.94.62-1.65,1.49-2.13,2.6-.48,1.11-.71,2.39-.71,3.82s.22,2.72.67,3.86c.45,1.14,1.13,2.03,2.04,2.68.91.65,2.03.97,3.36.97s2.47-.32,3.4-.95Z"/><path d="M136.04,158.29v7.8c-.98.5-1.9.87-2.76,1.11-.85.24-1.8.36-2.84.36-1.68,0-3.09-.37-4.24-1.1-1.15-.73-2.01-1.75-2.58-3.06-.57-1.3-.85-2.82-.85-4.55,0-1.93.37-3.55,1.1-4.86.73-1.3,1.69-2.26,2.88-2.88,1.18-.61,2.44-.92,3.77-.92,1.95,0,3.66.49,5.13,1.48l-.68,1.09c-1.33-.86-2.8-1.3-4.39-1.3-1.35,0-2.5.31-3.45.93-.95.62-1.67,1.49-2.17,2.59-.49,1.11-.74,2.37-.74,3.81s.22,2.76.65,3.89c.43,1.12,1.11,2,2.05,2.64.93.64,2.11.96,3.52.96.81,0,1.54-.08,2.19-.25.65-.16,1.3-.4,1.96-.71v-5.83h-4.59l.16-1.22h5.88Z"/><path d="M151.95,167.15v.13h-1.63l-5.32-6.97h-3.26v6.97h-1.45v-16.79h4.9c1.23,0,2.28.19,3.16.58s1.55.94,2.02,1.66c.47.72.7,1.56.7,2.53,0,.85-.17,1.61-.51,2.29-.34.68-.84,1.26-1.52,1.72s-1.5.78-2.49.93l5.39,6.94ZM141.74,159.09h3.41c1.48,0,2.59-.34,3.34-1.01s1.12-1.58,1.12-2.72-.37-2.03-1.12-2.67c-.75-.64-1.86-.96-3.34-.96h-3.41v7.36Z"/><path d="M161.19,150.49l6.66,16.66v.13h-1.5l-2.07-5.26h-7.8l-2.05,5.26h-1.4v-.13l6.61-16.66h1.55ZM156.97,160.8h6.84l-3.42-8.76-3.42,8.76Z"/><path d="M180.75,151.74h-8.39v6.76h7.38l-.15,1.24h-7.23v7.54h-1.45v-16.79h9.84v1.24Z"/><path d="M184.12,167.28v-16.79h1.45v16.79h-1.45Z"/><path d="M196.81,150.49l6.66,16.66v.13h-1.5l-2.07-5.26h-7.8l-2.05,5.26h-1.4v-.13l6.61-16.66h1.55ZM192.59,160.8h6.84l-3.42-8.76-3.42,8.76Z"/></g></g><path d="M85.97,3.22l3.55.28.55,4.46h2.35c.34-.32-1.1-5.41,2.19-6.36,1.51-.44,17.43-.46,19.29-.11,2.67.51,2.3,4.28,2.67,6.46h1.76l.54-5.5,2.69-.98c26.55,1.8,56.29-2.4,82.47-.03,3.04.27,4.62,1.28,4.99,4.43.71,6.01-.62,13.21.06,19.37l.48.69c8.7.52,7.46,10-.59,10.62l-.86,56.76-1.61,1.34-147.62.14-2.06-2.06-.31-56.51c-8.15.44-9.19-10.02-.56-10.28l.48-.69c.74-3.36-1.15-14.06,1.1-16.14,2.53-2.34,10.24-.63,13.7-1.15l.53-3.89,4.16-.84.98-2.85h8.08l.98,2.85h0ZM84.18,3.23c-1.07-1.9-5.59-1.62-7.06-.29l7.06.29ZM114.21,3.24h-19.14l-.79.97-.09,3.74h20.02V3.24ZM200.17,3.24c-4.78-.53-9.75.62-14.4.62-20.16-.01-41.11-2.08-61.25-.61-1.46.11-2.9.8-4.42.59l-.09,4.92-1.39.97-59.16.3c-.28.13-1.19,1.07-1.19,1.17v17.96h29.73c.25,0,2.06-2.62,3.23-2.36v-.58s-22.66,0-22.66,0c-.18,0-1.08-1.2-1.46-1.47l.87-.88h82.43c3.6,0,11.69,5.3,12.36,5.3h37.39V3.24h0ZM207.24,29.15V5.3c0-1.6-5.3-3.1-5.3-1.18v25.02h5.3ZM88.3,7.95l-.08-1.98-.8-.96h-13.84v2.94h14.72ZM128.63,26.2c-10.52.57-21.52-.42-32.09,0l2.95,2.64c1.16.54,23.23.65,25.57.27,1.83-.29,3.27-2.02,5.03-2.63,1.63-1.86-1.22-.3-1.47-.29h0ZM175.78,57.08c0-17.47-14.16-31.63-31.63-31.63s-31.63,14.16-31.63,31.63,14.16,31.63,31.63,31.63,31.63-14.16,31.63-31.63ZM56.51,27.97c-1.6-.26-3.7.19-4.42,1.79-1.48,3.31,3.23,5.62,4.15,4.13l.27-5.91h0ZM90.07,30.32c1.88-3.39,9.84-1.2,7.34,4.7-1.88,4.44-10.28.59-7.34-4.7-3.86,5.9,4.32,10.08,7.67,5.61,3.67-4.9-2.93-10.75-7.35-6.76-.3.27-.18.94-.32,1.15h0ZM212.97,33.12c2.37-2.48-.89-6.06-3.96-5.15.3,1.88-1.13,6.88,1.79,6.22.34-.08,1.97-.84,2.18-1.06h0ZM96.44,32.75c0-1.42-1.15-2.57-2.57-2.57s-2.57,1.15-2.57,2.57,1.15,2.57,2.57,2.57,2.57-1.15,2.57-2.57ZM58.27,30.91v55.35h68.89l-6.8-5.27c-3.84-4.65-7.54-9.75-8.57-15.86-16.89,2.33-17-18.24.04-15.98.01-3.41,2.09-6.23,3.46-9.2l6.57-9.02-21.18.6c.16,10.75-13.93,10.9-13.57-.01l-28.84-.59h0ZM207.24,31.5l-41.21-.59,5.55,6.51c3.36,5.27,5.8,11.29,6.23,17.62,4.98-2.41,3.66-15.87,9.11-15.94,6.95-.09,1.92,10.27,2.05,13.87.06,1.67,1.28,3.14,1.19,4.69-.27,4.44-5.89,7.21-9.71,4.47-1.5-1.08-1.39-2.71-2.63-3.54-.54,11.86-7.09,21.03-16.49,27.67h45.93V31.5h0ZM187.22,52.11c-.03-2.18,2.51-9.02,1.2-10.32-3.65-3.59-4.83,7.62-5.32,9.73l4.12.59h0ZM111.27,50.93c-14-1.98-14.01,14.33,0,12.36.94-.72,0-1.07-.87-1.18-3.19-.4-5.9,1.11-7.88-2.72-2.81-5.43,4.05-8.94,8.75-6.7v-1.76s0,0,0,0ZM188.1,57.3c0-2.3-1.87-4.17-4.17-4.17s-4.17,1.87-4.17,4.17,1.87,4.17,4.17,4.17,4.17-1.87,4.17-4.17ZM110.68,60.35l-.26-5.93c-8.93-3.02-9.08,7.94.26,5.93ZM207.24,88.02h-49.17c-9.73,3.8-18.47,3.23-28.24-.02H58.61c-1.07,2.99-.02,5.67,3.46,5.35l143.38-.33c1.92-1.16,1.97-2.91,1.78-4.99Z"/><path d="M58.72,95.16l-2.28-2.28v-.15s-.31-56.12-.31-56.12c-2.5.02-4.58-.96-5.74-2.76-1.02-1.6-1.13-3.6-.27-5.22.57-1.08,2.05-2.89,5.62-3.05l.33-.48c.25-1.25.15-3.54.05-5.97-.18-4.37-.37-8.89,1.14-10.29,1.77-1.64,5.74-1.44,9.24-1.25,1.66.09,3.24.17,4.38.04l.53-3.87,4.21-.85,1-2.9h8.62l.99,2.87,3.62.28.55,4.43h1.7c0-.16-.02-.38-.03-.58-.11-1.61-.33-4.97,2.44-5.77,1.64-.47,17.78-.44,19.46-.12,2.39.45,2.62,3.12,2.8,5.26.04.42.07.83.12,1.19h1.1l.53-5.4,2.98-1.09h.08c12.66.86,26.28.35,39.44-.15,14.42-.55,29.33-1.11,43.03.13,2.89.26,4.91,1.17,5.33,4.76.36,3.05.2,6.45.04,9.74-.15,3.21-.31,6.53.01,9.54l.33.47c4.52.34,6.16,2.99,6.17,5.18.02,2.66-2.28,5.67-6.6,6.14l-.86,56.59-1.84,1.53h-.14l-147.78.14ZM57.19,92.57l1.84,1.84,147.33-.14,1.37-1.14.87-56.93.34-.03c4.09-.31,6.27-3.02,6.25-5.42-.02-1.9-1.51-4.2-5.65-4.45h-.18s-.65-1.03-.65-1.03c-.34-3.09-.18-6.48-.03-9.75.15-3.26.31-6.62-.04-9.61-.32-2.75-1.54-3.82-4.65-4.1-13.65-1.24-28.54-.67-42.94-.13-13.16.5-26.77,1.02-39.44.16l-2.39.87-.56,5.6h-2.42l-.05-.31c-.08-.47-.13-1-.17-1.57-.17-1.99-.36-4.24-2.2-4.59-1.91-.36-17.81-.28-19.11.1-2.19.63-2,3.47-1.89,4.99.05.76.07,1.07-.14,1.27l-.11.1h-2.83l-.55-4.48-3.49-.25-.98-2.85h-7.55l-.83,2.4.53-.48c1-.91,3.24-1.38,5.11-1.08,1.23.2,2.11.7,2.53,1.46l.33.58-8.54-.35-.09.26-4.11.83-.53,3.9-.28.04c-1.24.18-2.97.09-4.81,0-3.35-.17-7.16-.37-8.69,1.05-1.26,1.17-1.06,5.91-.9,9.71.11,2.52.21,4.91-.08,6.23l-.06.13-.59.85h-.19c-2.47.08-4.3,1.02-5.17,2.67-.73,1.38-.64,3.09.24,4.46,1.06,1.66,3.06,2.54,5.46,2.4l.39-.02.31,56.75ZM78.46,2.63l4.8.19c-.36-.23-.84-.39-1.4-.49-1.12-.18-2.42-.05-3.4.29ZM61.5,93.75c-1.6,0-2.48-.67-2.94-1.27-.85-1.09-.96-2.77-.3-4.59l.09-.25h71.6c10.47,3.5,19.1,3.51,27.98.03l.14-.03h49.51l.03.34c.18,2.08.17,4.05-1.96,5.35l-.09.05h-.1l-143.38.33c-.2.02-.39.03-.57.03ZM58.88,88.39c-.47,1.48-.38,2.79.27,3.63.58.74,1.58,1.07,2.89.95l143.31-.33c1.58-1.01,1.68-2.46,1.55-4.24h-48.75c-9.02,3.51-17.77,3.5-28.37-.02H58.88ZM144.15,89.08c-17.65,0-32.01-14.36-32.01-32.01s14.36-32.01,32.01-32.01,32.01,14.36,32.01,32.01-14.36,32.01-32.01,32.01ZM144.15,25.82c-17.24,0-31.26,14.02-31.26,31.26s14.02,31.26,31.26,31.26,31.26-14.02,31.26-31.26-14.02-31.26-31.26-31.26ZM207.61,86.63h-47.48l.96-.68c10.2-7.2,15.85-16.67,16.33-27.38l.03-.67.55.37c.68.46,1,1.11,1.31,1.75.31.64.63,1.29,1.33,1.8,1.67,1.2,3.84,1.36,5.82.42,1.92-.91,3.18-2.67,3.3-4.6.04-.72-.24-1.45-.55-2.23-.3-.76-.61-1.55-.64-2.42-.04-1.03.31-2.5.71-4.21.7-2.97,1.57-6.67.23-8.34-.53-.66-1.36-.98-2.6-.96-2.59.03-3.53,3.62-4.53,7.42-.94,3.57-1.91,7.26-4.42,8.48l-.5.24-.04-.55c-.39-5.77-2.47-11.63-6.17-17.44l-6.05-7.1,42.41.6v55.51ZM162.47,85.88h44.39V31.87l-40.02-.57,5.01,5.89c3.67,5.75,5.77,11.54,6.27,17.23,1.85-1.32,2.7-4.56,3.53-7.7,1.07-4.08,2.09-7.94,5.25-7.98,1.42-.04,2.52.4,3.2,1.24,1.57,1.95.69,5.68-.08,8.98-.37,1.58-.72,3.08-.69,4.01.03.74.31,1.47.59,2.17.32.82.65,1.67.6,2.55-.14,2.2-1.56,4.21-3.73,5.24-2.22,1.06-4.68.87-6.58-.49-.86-.62-1.24-1.4-1.57-2.08-.17-.34-.32-.65-.51-.93-.72,10.28-6.11,19.39-15.66,26.46ZM128.26,86.63H57.9V30.76l.23-.23,29.38.61v.38c-.12,3.15,1.01,5.59,3.15,6.88,1.9,1.14,4.29,1.15,6.24.03,2.21-1.27,3.45-3.79,3.4-6.9v-.37s22.3-.64,22.3-.64l-7.02,9.64c-.31.69-.7,1.44-1.09,2.16-1.12,2.14-2.29,4.35-2.3,6.82v.43s-.42-.06-.42-.06c-5.14-.68-9.23.72-11.21,3.85-1.49,2.35-1.48,5.27.02,7.61,2,3.11,6.06,4.48,11.15,3.78l.36-.05.06.36c1,5.96,4.67,11.06,8.49,15.69l7.6,5.89ZM58.65,85.88h67.42l-5.93-4.6c-3.87-4.67-7.53-9.76-8.64-15.74-5.22.63-9.41-.88-11.53-4.16-1.67-2.59-1.68-5.82-.03-8.42,2.09-3.3,6.28-4.82,11.53-4.24.13-2.48,1.27-4.64,2.37-6.74.38-.72.77-1.46,1.1-2.19l6.16-8.47-20.05.57c-.05,3.23-1.42,5.84-3.78,7.2-2.19,1.26-4.87,1.25-7-.04-2.27-1.36-3.54-3.96-3.54-7.17l-28.09-.58v54.59ZM108.99,63.83c-3.47,0-6.19-1.22-7.64-3.49-1.28-1.99-1.28-4.47,0-6.47,1.77-2.75,5.4-3.96,9.97-3.32l.32.05v2.68s-.54-.26-.54-.26c-2.52-1.2-5.92-.69-7.73,1.18-1.31,1.35-1.5,3.13-.53,5,1.35,2.6,3,2.54,5.1,2.47.8-.03,1.62-.06,2.49.05.92.12,1.45.4,1.57.83.09.34-.08.68-.52,1.02l-.08.06h-.1c-.81.13-1.58.18-2.33.18ZM108.99,51.14c-3.2,0-5.7,1.1-7.01,3.14-1.12,1.74-1.12,3.91,0,5.66,1.59,2.48,4.91,3.56,9.13,2.99.15-.13.17-.2.17-.2-.03-.02-.32-.17-.93-.25-.82-.1-1.61-.07-2.37-.05-2.18.07-4.23.15-5.79-2.87-1.11-2.15-.87-4.29.66-5.87,1.89-1.96,5.33-2.59,8.05-1.57v-.87c-.65-.08-1.29-.12-1.9-.12ZM183.94,61.84c-2.5,0-4.54-2.04-4.54-4.54s2.04-4.54,4.54-4.54,4.54,2.04,4.54,4.54-2.04,4.54-4.54,4.54ZM183.94,53.5c-2.09,0-3.79,1.7-3.79,3.79s1.7,3.79,3.79,3.79,3.79-1.7,3.79-3.79-1.7-3.79-3.79-3.79ZM108.51,60.97c-2.11,0-3.78-.75-4.65-2.15-.77-1.24-.71-2.75.16-3.84,1.22-1.54,3.66-1.88,6.52-.91l.24.08.28,6.5-.31.07c-.79.17-1.55.25-2.25.25ZM107.53,54.28c-1.28,0-2.31.4-2.92,1.17-.67.85-.72,2.02-.12,2.98.95,1.53,3.1,2.12,5.79,1.62l-.23-5.35c-.91-.29-1.76-.43-2.52-.43ZM187.6,52.55l-4.96-.72.09-.4c.07-.3.15-.79.26-1.4.71-4.14,1.62-8.61,3.59-9.24.68-.22,1.38.03,2.1.74.92.9.41,3.43-.41,6.9-.35,1.51-.69,2.93-.68,3.68v.44ZM183.54,51.21l3.32.48c.07-.85.36-2.06.68-3.43.55-2.33,1.3-5.52.61-6.2-.51-.5-.95-.68-1.34-.56-1.7.55-2.67,6.23-3.08,8.65-.07.41-.13.76-.18,1.05ZM93.98,38.18c-1.16,0-2.32-.37-3.24-1.02-1.77-1.24-3.08-3.82-.99-7.03t0,0s.03-.17.04-.26c.03-.32.07-.71.36-.97,2.47-2.23,5.47-1.53,7.22.06,1.8,1.64,2.7,4.5.68,7.2-1.06,1.41-2.57,2.02-4.06,2.02ZM89.67,34.68c.3.78.86,1.41,1.5,1.86,1.13.79,2.66,1.11,4.04.71-.15.03-.3.05-.46.06-1.89.16-3.92-.85-4.97-2.46-.04-.06-.07-.12-.11-.18ZM90.39,30.51c-.97,1.74-.52,3.1.02,3.94.89,1.37,2.69,2.26,4.27,2.12.79-.07,1.84-.42,2.39-1.7,1.45-3.42-.93-4.9-1.7-5.28-1.68-.82-4.06-.66-4.95.88,0,.01-.01.03-.02.04ZM93.2,28.35c.86,0,1.74.2,2.49.57,1.89.92,3.42,3.05,2.06,6.24-.04.09-.08.17-.12.25,1.48-2.24.7-4.56-.78-5.91-1.15-1.04-2.82-1.63-4.47-1.09.27-.04.54-.06.81-.06ZM93.86,35.69c-1.63,0-2.95-1.32-2.95-2.95s1.32-2.95,2.95-2.95,2.95,1.32,2.95,2.95-1.32,2.95-2.95,2.95ZM93.86,30.55c-1.21,0-2.2.99-2.2,2.2s.99,2.2,2.2,2.2,2.2-.99,2.2-2.2-.99-2.2-2.2-2.2ZM55.22,34.73c-.49,0-1.05-.15-1.63-.45-1.58-.84-2.77-2.61-1.85-4.67.8-1.78,3.06-2.29,4.82-2.01l.32.05v.32l-.28,6.03-.05.08c-.26.43-.75.64-1.34.64ZM55.64,28.28c-1.33,0-2.71.51-3.22,1.64-.83,1.85.56,3.2,1.51,3.7.8.43,1.62.48,1.92.14l.25-5.46c-.16-.01-.31-.02-.47-.02ZM210.3,34.62c-.4,0-.75-.12-1.02-.35-.9-.77-.78-2.52-.67-4.22.05-.79.1-1.54.02-2.02l-.05-.33.32-.09c2-.59,3.9.5,4.75,1.89.78,1.27.66,2.67-.31,3.77h0s-.1.12-.1.12c-.29.3-2.03,1.09-2.36,1.17-.2.05-.39.07-.57.07ZM209.41,28.25c.03.52,0,1.17-.05,1.84-.09,1.37-.2,3.08.41,3.6.21.18.52.22.94.12.3-.07,1.74-.76,1.98-.95h0c.82-.87.94-1.96.31-2.98-.64-1.04-2.08-1.92-3.6-1.63ZM115.33,29.7c-6.99,0-15.22-.16-15.99-.52l-.09-.06-3.64-3.26.92-.04c5.03-.2,10.25-.08,15.29.04,5.55.13,11.29.26,16.8-.04h0s.17-.08.33-.15c1.01-.44,1.64-.67,1.94-.27.28.38-.1.86-.5,1.33l-.07.07-.09.03c-.73.25-1.4.71-2.11,1.19-.92.63-1.88,1.27-2.98,1.45-.87.14-5.05.21-9.8.21ZM99.7,28.52c1.52.45,22.69.65,25.31.23.94-.15,1.79-.73,2.68-1.33.69-.47,1.41-.96,2.19-1.24.03-.03.06-.07.08-.1-.26.09-.55.22-.71.29-.36.15-.47.2-.59.21l-.88.05h.01c-5.26.23-10.71.1-15.98-.02-4.72-.11-9.59-.22-14.31-.07l2.21,1.97ZM207.61,29.52h-6.05V4.12c0-.8.66-1.28,1.76-1.28,1.69,0,4.28,1.1,4.28,2.46v24.22ZM202.31,28.77h4.55V5.3c0-.73-2.01-1.71-3.53-1.71-.46,0-1.01.09-1.01.53v24.65ZM200.55,29.52h-37.76c-.27,0-.72-.23-2.5-1.21-2.79-1.53-7.45-4.09-9.87-4.09h-82.27l-.49.5c.15.15.31.34.48.53.17.19.42.48.54.58h22.95v1.42s-.46-.1-.46-.1c-.62-.13-1.75,1.1-2.29,1.7-.46.5-.62.67-.86.67h-30.11V11.19c0-.39,1.21-1.42,1.4-1.51l.16-.03,59.05-.3,1.14-.79.09-5.15.42.06c.86.12,1.69-.07,2.57-.28.57-.13,1.16-.27,1.76-.31,12.79-.93,26.07-.44,38.91.04,7.37.28,15,.56,22.37.57h.02c1.85,0,3.71-.18,5.69-.37,2.86-.28,5.82-.56,8.71-.25h.36v26.66ZM67.84,23.47h82.59c2.61,0,7.38,2.62,10.23,4.18.96.53,1.96,1.08,2.17,1.12h36.98V3.58c-2.72-.26-5.53.01-8.25.28-1.9.18-3.87.37-5.76.37h-.02c-7.39,0-15.02-.29-22.4-.57-12.82-.48-26.08-.98-38.83-.04-.54.04-1.08.16-1.65.3-.78.18-1.59.37-2.43.33l-.08,4.71-1.64,1.14h-.12s-59.06.3-59.06.3c-.22.15-.75.68-.92.9v17.48h29.25c.09-.09.27-.27.41-.43.55-.6,1.29-1.4,2.04-1.76h-21.77c-.26,0-.43-.19-1.01-.84-.24-.27-.53-.6-.67-.71l-.35-.26,1.29-1.31ZM114.58,8.32h-20.78l.1-4.25.98-1.21h19.69v5.46ZM94.57,7.57h19.26v-3.96h-18.58l-.6.74-.08,3.22ZM88.69,8.32h-15.48v-3.69h14.39l1,1.19.1,2.5ZM73.96,7.57h13.95l-.06-1.46-.61-.73h-13.29v2.19Z"/><path d="M58.27,30.91l28.84.59c-.36,10.91,13.72,10.76,13.57.01l21.18-.6-6.57,9.02c-1.37,2.97-3.44,5.79-3.46,9.2-17.04-2.26-16.93,18.31-.04,15.98,1.03,6.11,4.73,11.21,8.57,15.86l6.8,5.27H58.27V30.91h0Z" fill="#fff"/><path d="M128.25,86.64H57.9V30.54h.39l29.22.6v.38c-.12,3.15,1.01,5.59,3.15,6.88,1.9,1.14,4.29,1.15,6.25.03,2.21-1.27,3.45-3.79,3.4-6.9v-.37s22.3-.64,22.3-.64l-7.02,9.64c-.31.69-.7,1.44-1.08,2.16-1.12,2.14-2.29,4.35-2.3,6.82v.43s-.42-.06-.42-.06c-5.14-.68-9.23.72-11.21,3.85-1.49,2.35-1.48,5.27.02,7.61,2,3.11,6.06,4.48,11.15,3.78l.36-.05.06.36c1.05,6.26,4.93,11.38,8.49,15.69l7.6,5.89ZM58.65,85.89h67.42l-5.93-4.6c-3.86-4.67-7.53-9.77-8.64-15.74-5.23.63-9.41-.88-11.53-4.16-1.67-2.59-1.68-5.82-.03-8.42,2.09-3.29,6.28-4.83,11.53-4.24.13-2.47,1.27-4.64,2.37-6.74.38-.72.77-1.46,1.1-2.19l6.16-8.47-20.05.57c-.05,3.23-1.42,5.84-3.78,7.19-2.19,1.26-4.87,1.25-7.01-.04-2.27-1.36-3.54-3.96-3.54-7.17l-28.09-.58v54.59Z"/><path d="M200.17,3.24v25.91h-37.39c-.68,0-8.76-5.3-12.36-5.3h-82.43l-.87.88c.38.27,1.28,1.47,1.46,1.47h22.67v.58c-1.18-.25-2.99,2.36-3.24,2.36h-29.73V11.19c0-.1.91-1.04,1.19-1.17l59.16-.3,1.39-.97.09-4.92c1.52.22,2.96-.48,4.42-.59,20.15-1.47,41.09.59,61.25.61,4.65,0,9.61-1.15,14.4-.62h0ZM128.4,7.95c0-1.85-1.5-3.36-3.36-3.36s-3.36,1.5-3.36,3.36,1.5,3.36,3.36,3.36,3.36-1.5,3.36-3.36ZM171.46,26.06c.92.67,2,.66,3.07.75,4.64.39,15.66.59,20.07,0,1.93-.25,2.39-.7,2.65-2.65.39-2.94.39-12.42,0-15.36-.31-2.39-1.04-2.44-3.23-2.66-4.89-.47-14.55-.41-19.49,0-1.07.09-2.16.09-3.07.75-1.14,1.14-1.16,17.99,0,19.15h0ZM149.4,15.85c0-2.81-2.28-5.09-5.09-5.09s-5.09,2.28-5.09,5.09,2.28,5.09,5.09,5.09,5.09-2.28,5.09-5.09ZM99.57,13.33c.06,1.97-.89,6.9,1.09,7.87,1,.48,7.24.52,8.52.27,3.15-.59,2.65-7.67.9-8.52-1.23-.6-9.96-.51-10.52.38h0Z" fill="#fff"/><path d="M200.55,29.52h-37.76c-.27,0-.72-.23-2.5-1.21-2.79-1.53-7.45-4.09-9.87-4.09h-82.27l-.49.5c.15.15.31.34.48.53.17.19.42.48.54.58h22.95v1.42s-.46-.1-.46-.1c-.61-.13-1.75,1.11-2.3,1.7-.46.5-.61.67-.85.67h-30.11V11.19c0-.39,1.21-1.42,1.4-1.51l.16-.03,59.05-.3,1.14-.79.09-5.15.42.06c.86.12,1.7-.07,2.58-.28.57-.13,1.16-.27,1.76-.31,12.8-.94,26.09-.44,38.94.04,7.36.28,14.98.56,22.34.57h.02c1.85,0,3.71-.18,5.69-.37,2.87-.28,5.84-.56,8.73-.24h.38l-.04.37v26.28ZM67.83,23.47h82.59c2.61,0,7.38,2.62,10.23,4.18.96.53,1.96,1.08,2.17,1.12h36.98V3.58c-2.74-.25-5.54.02-8.25.28-1.9.18-3.87.37-5.76.37h-.02c-7.38,0-15-.29-22.37-.57-12.83-.48-26.1-.98-38.86-.04-.54.04-1.08.16-1.64.3-.78.18-1.58.37-2.43.33l-.08,4.71-1.64,1.14h-.12s-59.06.3-59.06.3c-.22.15-.75.68-.92.9v17.48h29.25c.09-.08.26-.27.41-.43.55-.6,1.29-1.41,2.04-1.77h-21.77c-.26,0-.43-.19-1.01-.84-.24-.27-.53-.6-.67-.71l-.35-.26,1.29-1.31ZM185.75,27.56c-4.19,0-8.6-.15-11.24-.37l-.39-.03c-.76-.06-1.55-.11-2.28-.45v.26l-.64-.64c-.91-.91-.97-7.77-.97-9.85,0-2.08.08-8.93.97-9.83.93-.69,1.94-.76,2.92-.83l.39-.03c4.77-.4,14.56-.49,19.56,0,2.22.21,3.22.31,3.57,2.98.39,2.96.39,12.5,0,15.46-.28,2.11-.86,2.69-2.97,2.97-1.98.26-5.36.37-8.91.37ZM171.71,25.78c.71.5,1.56.57,2.46.63l.4.03c4.84.41,15.72.57,19.99,0,1.77-.23,2.09-.56,2.33-2.33.38-2.92.38-12.34,0-15.26-.27-2.08-.72-2.12-2.86-2.33-5-.48-14.72-.39-19.46,0l-.4.03c-.91.07-1.77.13-2.49.65-.99,1.1-.99,17.26.02,18.56ZM106,22c-2.23,0-4.83-.14-5.5-.46-1.74-.85-1.54-3.95-1.38-6.44.05-.7.09-1.3.07-1.75v-.12l.06-.09c.73-1.17,9.82-1.09,11-.52,1.26.61,1.81,3.48,1.52,5.68-.27,2.01-1.19,3.3-2.52,3.55-.52.1-1.82.16-3.26.16ZM99.95,13.49c0,.45-.03,1.01-.08,1.65-.13,2.03-.34,5.09.96,5.72.88.42,7,.48,8.29.24,1.41-.26,1.81-2.12,1.91-2.91.3-2.21-.36-4.54-1.1-4.9-1.18-.58-8.94-.39-9.98.21ZM144.31,21.31c-3.01,0-5.46-2.45-5.46-5.46s2.45-5.46,5.46-5.46,5.46,2.45,5.46,5.46-2.45,5.46-5.46,5.46ZM144.31,11.13c-2.6,0-4.71,2.11-4.71,4.71s2.11,4.71,4.71,4.71,4.71-2.11,4.71-4.71-2.11-4.71-4.71-4.71ZM125.04,11.68c-2.06,0-3.73-1.67-3.73-3.73s1.67-3.73,3.73-3.73,3.73,1.67,3.73,3.73-1.67,3.73-3.73,3.73ZM125.04,4.97c-1.64,0-2.98,1.34-2.98,2.98s1.34,2.98,2.98,2.98,2.98-1.34,2.98-2.98-1.34-2.98-2.98-2.98Z"/><path d="M207.24,31.5v54.76h-45.93c9.41-6.64,15.96-15.81,16.49-27.67,1.24.83,1.13,2.46,2.63,3.54,3.82,2.74,9.44-.03,9.71-4.47.09-1.54-1.13-3.02-1.19-4.69-.13-3.6,4.9-13.96-2.05-13.87-5.45.07-4.12,13.53-9.11,15.94-.43-6.33-2.86-12.35-6.23-17.62l-5.55-6.51,41.21.59h0Z" fill="#fff"/><path d="M207.61,86.63h-47.48l.96-.68c10.2-7.2,15.85-16.67,16.33-27.38l.03-.67.55.37c.68.46,1,1.11,1.31,1.75.31.64.63,1.29,1.33,1.8,1.67,1.2,3.84,1.36,5.82.42,1.92-.91,3.18-2.67,3.3-4.6.04-.72-.24-1.45-.55-2.23-.3-.76-.61-1.56-.64-2.42-.04-1.03.31-2.5.71-4.21.7-2.97,1.57-6.67.23-8.34-.53-.66-1.35-.97-2.6-.96-2.59.04-3.53,3.62-4.53,7.43-.94,3.57-1.91,7.26-4.42,8.48l-.5.24-.04-.55c-.39-5.77-2.47-11.64-6.17-17.44l-6.06-7.1,42.41.6v.37s0,55.13,0,55.13ZM162.47,85.88h44.39V31.87l-40.02-.57,5.01,5.89c3.68,5.75,5.77,11.53,6.27,17.23,1.85-1.32,2.7-4.56,3.53-7.7,1.07-4.08,2.09-7.94,5.25-7.99,1.42-.03,2.52.4,3.2,1.24,1.57,1.95.69,5.68-.08,8.98-.37,1.58-.72,3.08-.69,4.01.03.74.31,1.47.59,2.17.32.82.65,1.67.6,2.55-.14,2.2-1.56,4.21-3.73,5.24-2.22,1.06-4.68.87-6.58-.49-.86-.62-1.23-1.39-1.57-2.08-.17-.34-.32-.66-.52-.93-.72,10.28-6.11,19.39-15.66,26.46Z"/><path d="M207.24,88.02c.18,2.08.14,3.83-1.78,4.99l-143.38.33c-3.49.32-4.52-2.36-3.46-5.33h71.22c9.76,3.24,18.51,3.81,28.24,0h49.17,0Z" fill="#fff"/><path d="M61.5,93.75c-1.59,0-2.47-.67-2.93-1.27-.85-1.09-.96-2.77-.31-4.6l.09-.25h71.6c10.47,3.49,19.1,3.5,27.98.03l.14-.03h49.54v.36c.18,2.08.16,4.04-1.96,5.33l-.09.05h-.1l-143.38.33c-.2.02-.39.03-.58.03ZM58.88,88.39c-.47,1.48-.37,2.8.28,3.64.58.74,1.57,1.07,2.88.95l143.31-.33c1.58-1.01,1.68-2.46,1.55-4.25h-48.75c-9.02,3.51-17.77,3.5-28.37-.02H58.88Z"/><path d="M175.78,57.08c0,17.47-14.16,31.63-31.63,31.63s-31.63-14.16-31.63-31.63,14.16-31.63,31.63-31.63,31.63,14.16,31.63,31.63ZM173.33,57.07c0-16.09-13.04-29.13-29.13-29.13s-29.13,13.04-29.13,29.13,13.04,29.13,29.13,29.13,29.13-13.04,29.13-29.13Z" fill="#fff"/><path d="M144.15,89.08c-17.65,0-32.01-14.36-32.01-32.01s14.36-32.01,32.01-32.01,32.01,14.36,32.01,32.01-14.36,32.01-32.01,32.01ZM144.15,25.82c-17.24,0-31.26,14.02-31.26,31.26s14.02,31.26,31.26,31.26,31.26-14.02,31.26-31.26-14.02-31.26-31.26-31.26ZM144.2,86.57c-16.27,0-29.5-13.23-29.5-29.5s13.23-29.5,29.5-29.5,29.5,13.23,29.5,29.5-13.23,29.5-29.5,29.5ZM144.2,28.31c-15.85,0-28.75,12.9-28.75,28.75s12.9,28.75,28.75,28.75,28.75-12.9,28.75-28.75-12.9-28.75-28.75-28.75Z"/><path d="M207.24,29.15h-5.3V4.12c0-1.92,5.3-.42,5.3,1.18v23.85Z" fill="#fff"/><path d="M207.61,29.52h-6.05V4.12c0-.8.66-1.28,1.76-1.28,1.69,0,4.28,1.1,4.28,2.46v24.22ZM202.31,28.77h4.55V5.3c0-.73-2.01-1.71-3.53-1.71-.46,0-1.01.09-1.01.53v24.65Z"/><polygon points="114.21 3.24 114.21 7.95 94.19 7.95 94.28 4.21 95.07 3.24 114.21 3.24" fill="#fff"/><path d="M114.58,8.32h-20.78l.11-4.25.98-1.21h19.69v5.46ZM94.58,7.57h19.26v-3.96h-18.58l-.6.74-.08,3.22Z"/><path d="M128.63,26.2c.24-.01,3.09-1.58,1.47.29-1.76.61-3.2,2.33-5.03,2.63-2.34.38-24.41.27-25.57-.27l-2.95-2.64c10.57-.42,21.57.57,32.09,0h0Z" fill="#fff"/><path d="M115.33,29.7c-6.99,0-15.23-.16-15.99-.52l-.09-.06-3.64-3.26.92-.04c5.03-.2,10.25-.08,15.29.04,5.54.13,11.27.26,16.77-.04.07-.03.2-.08.36-.15,1-.43,1.64-.67,1.93-.27.28.38-.09.86-.5,1.33l-.07.08-.09.03c-.73.25-1.4.71-2.11,1.19-.92.63-1.88,1.27-2.98,1.45-.87.14-5.05.21-9.8.21ZM99.7,28.51c1.52.45,22.69.65,25.31.23.94-.15,1.79-.73,2.68-1.33.69-.47,1.41-.96,2.19-1.24.03-.03.05-.07.08-.09-.26.09-.55.22-.71.29-.36.16-.48.21-.6.21l-.97.05h0c-5.23.23-10.64.11-15.88-.01-4.72-.11-9.59-.22-14.31-.07l2.21,1.97Z"/><circle cx="183.94" cy="57.3" r="4.17" fill="#fff"/><path d="M183.94,61.84c-2.5,0-4.54-2.04-4.54-4.54s2.04-4.54,4.54-4.54,4.54,2.04,4.54,4.54-2.04,4.54-4.54,4.54ZM183.94,53.5c-2.09,0-3.79,1.7-3.79,3.79s1.7,3.79,3.79,3.79,3.79-1.7,3.79-3.79-1.7-3.79-3.79-3.79Z"/><polygon points="88.3 7.95 73.58 7.95 73.58 5.01 87.42 5.01 88.23 5.97 88.3 7.95" fill="#fff"/><path d="M88.69,8.32h-15.48v-3.69h14.39l1,1.19.1,2.5ZM73.96,7.57h13.95l-.06-1.46-.61-.73h-13.29v2.19Z"/><path d="M187.22,52.11l-4.12-.59c.48-2.11,1.67-13.32,5.32-9.73,1.32,1.3-1.22,8.13-1.2,10.32Z" fill="#fff"/><path d="M187.6,52.55l-4.96-.72.09-.4c.07-.3.15-.8.26-1.41.71-4.14,1.62-8.61,3.59-9.24.68-.22,1.38.03,2.1.74.92.9.41,3.43-.41,6.9-.35,1.51-.69,2.93-.68,3.68v.44ZM183.54,51.21l3.32.48c.07-.85.36-2.06.68-3.43.55-2.33,1.3-5.52.61-6.19-.51-.5-.95-.68-1.34-.56-1.7.55-2.67,6.23-3.08,8.65-.07.41-.13.76-.18,1.05Z"/><path d="M110.68,60.35c-9.34,2.01-9.19-8.95-.26-5.93l.26,5.93Z" fill="#fff"/><path d="M108.51,60.97c-2.11,0-3.78-.75-4.65-2.15-.77-1.24-.71-2.75.16-3.84,1.22-1.54,3.65-1.88,6.52-.91l.24.08.28,6.5-.31.07c-.79.17-1.55.25-2.25.25ZM107.53,54.28c-1.28,0-2.31.4-2.92,1.17-.67.85-.72,2.02-.11,2.98.95,1.53,3.1,2.12,5.79,1.62l-.23-5.35c-.91-.29-1.76-.43-2.52-.43Z"/><path d="M111.27,50.93v1.76c-4.71-2.24-11.57,1.26-8.76,6.7,1.98,3.83,4.7,2.33,7.88,2.72.87.11,1.81.46.87,1.18-14,1.98-14-14.34,0-12.36h0Z" fill="#fff"/><path d="M108.99,63.83c-3.47,0-6.19-1.22-7.64-3.49-1.28-2-1.28-4.47,0-6.47,1.77-2.75,5.4-3.97,9.97-3.32l.32.05v2.68s-.54-.25-.54-.25c-2.53-1.2-5.92-.68-7.73,1.19-1.31,1.35-1.5,3.13-.53,5,1.35,2.6,3.01,2.54,5.11,2.47.79-.03,1.61-.06,2.49.05.92.12,1.45.4,1.57.83.09.34-.08.68-.52,1.02l-.08.06h-.1c-.81.13-1.58.18-2.33.18ZM108.99,51.14c-3.2,0-5.7,1.1-7.01,3.14-1.12,1.75-1.12,3.91,0,5.66,1.59,2.48,4.91,3.57,9.13,2.99.15-.13.17-.2.17-.2-.03-.02-.32-.17-.93-.25-.81-.1-1.6-.07-2.37-.05-2.17.08-4.23.15-5.8-2.87-1.11-2.15-.87-4.29.65-5.87,1.89-1.96,5.33-2.59,8.06-1.57v-.87c-.66-.08-1.29-.12-1.9-.12Z"/><path d="M56.51,27.97l-.27,5.91c-.92,1.5-5.63-.81-4.15-4.13.72-1.6,2.82-2.04,4.42-1.79h0Z" fill="#fff"/><path d="M55.22,34.72c-.49,0-1.05-.15-1.62-.45-1.59-.84-2.77-2.61-1.85-4.67.8-1.78,3.06-2.29,4.82-2.01l.32.05v.34s-.28,6.01-.28,6.01l-.05.08c-.26.43-.75.65-1.34.65ZM55.65,28.27c-1.34,0-2.72.51-3.22,1.63-.83,1.85.56,3.2,1.52,3.7.8.42,1.62.48,1.92.14l.25-5.46c-.15-.01-.31-.02-.47-.02Z"/><path d="M212.97,33.12c-.21.22-1.84.99-2.18,1.06-2.92.66-1.48-4.34-1.79-6.22,3.08-.91,6.34,2.67,3.96,5.15h0Z" fill="#fff"/><path d="M210.3,34.62c-.4,0-.75-.12-1.02-.35-.9-.77-.78-2.52-.67-4.22.05-.79.1-1.54.02-2.02l-.05-.33.32-.09c2-.59,3.91.5,4.75,1.89.78,1.27.66,2.67-.31,3.77h0s-.1.12-.1.12c-.29.3-2.03,1.09-2.36,1.17-.2.05-.39.07-.57.07ZM209.41,28.25c.03.52,0,1.17-.05,1.84-.09,1.37-.2,3.08.41,3.6.21.18.52.22.94.12.3-.07,1.73-.76,1.98-.95h0c.83-.87.94-1.96.31-2.98-.64-1.05-2.09-1.92-3.6-1.64Z"/><path d="M90.07,30.32c.14-.21.03-.88.32-1.15,4.41-3.99,11.01,1.86,7.35,6.76-3.34,4.47-11.53.29-7.67-5.61-2.94,5.29,5.46,9.14,7.34,4.7,2.5-5.9-5.46-8.08-7.34-4.7h0Z" fill="#fff"/><path d="M93.98,38.18c-1.16,0-2.32-.37-3.24-1.02-1.77-1.24-3.08-3.82-.99-7.03t0,0s.03-.17.04-.26c.03-.32.07-.71.36-.97,2.47-2.23,5.47-1.53,7.22.06,1.8,1.64,2.7,4.5.68,7.2-1.06,1.41-2.56,2.02-4.06,2.02ZM89.67,34.68c.3.78.86,1.41,1.5,1.87,1.13.79,2.65,1.1,4.02.72-.14.03-.29.05-.45.06-1.88.16-3.92-.85-4.97-2.46-.04-.06-.08-.12-.11-.18ZM90.39,30.51c-.97,1.74-.52,3.1.02,3.94.89,1.37,2.69,2.27,4.27,2.12.79-.07,1.84-.42,2.38-1.7,1.45-3.42-.94-4.9-1.7-5.28-1.68-.82-4.06-.66-4.95.88,0,.01-.02.03-.02.04ZM93.2,28.35c.86,0,1.74.2,2.49.57,1.89.92,3.42,3.05,2.06,6.25-.04.09-.08.17-.12.25,1.48-2.24.7-4.56-.78-5.91-1.15-1.04-2.81-1.63-4.47-1.09.27-.04.54-.06.81-.06Z"/><path d="M84.18,3.23l-7.06-.29c1.47-1.33,6-1.62,7.06.29Z" fill="#fff"/><path d="M84.84,3.64l-8.65-.35.68-.62c1-.91,3.24-1.38,5.11-1.08,1.23.2,2.11.7,2.53,1.46l.33.58ZM78.46,2.63l4.8.19c-.36-.23-.84-.39-1.4-.49-1.12-.18-2.42-.05-3.4.29Z"/><path d="M171.46,26.06c-1.16-1.16-1.14-18.01,0-19.15.92-.67,2-.66,3.07-.75,4.94-.42,14.6-.49,19.49,0,2.2.21,2.92.27,3.23,2.66.39,2.94.39,12.42,0,15.36-.26,1.95-.72,2.4-2.65,2.65-4.41.58-15.43.39-20.07,0-1.07-.09-2.16-.09-3.07-.75h0ZM195.46,7.95h-22.37v1.77h22.37v-1.77ZM195.46,11.48h-22.37c-.58,3.46-.94,6.55,0,10.01h22.37v-10.01ZM195.46,23.26h-22.37v1.77h22.37v-1.77Z"/><path d="M185.75,27.56c-4.19,0-8.6-.15-11.24-.37l-.39-.03c-.76-.06-1.55-.11-2.28-.45v.26l-.64-.64c-1.29-1.29-1.29-18.39,0-19.68.93-.69,1.94-.76,2.92-.83l.39-.03c4.78-.4,14.57-.5,19.56,0,2.22.21,3.22.31,3.57,2.98.39,2.96.39,12.5,0,15.46-.28,2.11-.86,2.69-2.97,2.97-1.98.26-5.36.37-8.91.37ZM171.71,25.78c.71.5,1.56.57,2.46.63l.4.03c4.84.41,15.72.57,19.99,0,1.77-.23,2.09-.56,2.33-2.33.38-2.92.38-12.34,0-15.26-.27-2.08-.72-2.12-2.86-2.33-4.98-.49-14.71-.39-19.46,0l-.4.03c-.91.07-1.77.13-2.49.65-.99,1.1-.99,17.26.02,18.56ZM195.84,25.4h-23.12v-2.52h23.12v2.52ZM173.46,24.65h21.62v-1.02h-21.62v1.02ZM195.84,21.87h-23.04l-.08-.28c-.98-3.59-.56-6.86,0-10.17l.05-.31h23.07v10.76ZM173.38,21.12h21.71v-9.26h-21.68c-.52,3.14-.85,6.03-.03,9.26ZM195.84,10.09h-23.12v-2.52h23.12v2.52ZM173.46,9.34h21.62v-1.02h-21.62v1.02Z"/><path d="M99.57,13.33c.56-.89,9.29-.98,10.52-.38,1.75.85,2.24,7.93-.9,8.52-1.28.24-7.53.21-8.52-.27-1.98-.96-1.03-5.9-1.09-7.87h0ZM109.5,19.14l-.26-4.16c-.82-1.18-6.35-.27-7.99-.55v4.71h8.25Z"/><path d="M105.89,21.99c-2.19,0-4.71-.12-5.39-.45-1.74-.85-1.54-3.95-1.38-6.45.05-.7.09-1.3.07-1.75v-.11s.06-.1.06-.1c.73-1.17,9.82-1.09,11-.52,1.26.61,1.81,3.48,1.52,5.68-.27,2.01-1.19,3.3-2.52,3.55-.48.09-1.84.15-3.37.15ZM99.95,13.5c0,.45-.03,1.01-.08,1.65-.13,2.03-.34,5.09.96,5.72.87.42,7,.48,8.29.24,1.41-.26,1.8-2.12,1.91-2.91.3-2.21-.36-4.54-1.1-4.9-1.18-.58-8.94-.39-9.98.21ZM109.9,19.51h-9.02v-5.53l.44.08c.54.09,1.6.04,2.72,0,2.85-.13,4.92-.15,5.52.72l.06.09.29,4.66ZM101.63,18.76h7.47l-.22-3.64c-.56-.52-3.1-.4-4.81-.33-.96.04-1.82.08-2.44.04v3.92Z"/><path d="M149.4,15.85c0,2.81-2.28,5.09-5.09,5.09s-5.09-2.28-5.09-5.09,2.28-5.09,5.09-5.09,5.09,2.28,5.09,5.09ZM145.41,12.67c-3.23-.43-4.54.94-4.12,4.12.59.71,4.82-3.49,4.12-4.12ZM143.06,19.13c1.15.06,2.66-.05,3.52-.89,1.12-1.1,1.76-4.56-.29-3.23-.51.33-3.87,3.58-3.24,4.12Z"/><path d="M144.31,21.31c-3.01,0-5.46-2.45-5.46-5.46s2.45-5.46,5.46-5.46,5.46,2.45,5.46,5.46-2.45,5.46-5.46,5.46ZM144.31,11.13c-2.6,0-4.71,2.11-4.71,4.71s2.11,4.71,4.71,4.71,4.71-2.11,4.71-4.71-2.11-4.71-4.71-4.71ZM143.59,19.52c-.19,0-.37,0-.55-.02h-.13s-.1-.09-.1-.09c-.15-.13-.22-.32-.21-.53.08-1.14,3.09-3.93,3.48-4.19.96-.63,1.45-.3,1.65-.05.63.79,0,2.97-.9,3.86-.83.81-2.14,1.01-3.26,1.01ZM143.4,18.77c1,.03,2.23-.11,2.92-.8.75-.74,1.12-2.5.84-2.85-.07-.09-.34,0-.66.2-.53.34-2.78,2.64-3.1,3.45ZM141.49,17.24c-.26,0-.41-.13-.49-.21l-.07-.08v-.11c-.25-1.74.01-2.96.79-3.73.77-.77,2-1.03,3.74-.8l.11.02.09.08c.11.1.28.32.17.73-.3,1.16-3,3.84-4.12,4.09-.08.02-.15.03-.21.03ZM144.34,12.96c-.94,0-1.64.22-2.08.66-.55.55-.76,1.5-.62,2.83.32-.12,1.06-.6,2.02-1.57.86-.87,1.32-1.56,1.43-1.87-.26-.03-.51-.04-.75-.04Z"/><path d="M128.4,7.95c0,1.85-1.5,3.36-3.36,3.36s-3.36-1.5-3.36-3.36,1.5-3.36,3.36-3.36,3.36,1.5,3.36,3.36ZM126.42,7.78c0-.79-.64-1.44-1.44-1.44s-1.44.64-1.44,1.44.64,1.44,1.44,1.44,1.44-.64,1.44-1.44Z"/><path d="M125.04,11.68c-2.06,0-3.73-1.67-3.73-3.73s1.67-3.73,3.73-3.73,3.73,1.67,3.73,3.73-1.67,3.73-3.73,3.73ZM125.04,4.97c-1.64,0-2.98,1.34-2.98,2.98s1.34,2.98,2.98,2.98,2.98-1.34,2.98-2.98-1.34-2.98-2.98-2.98ZM124.98,9.6c-1,0-1.81-.81-1.81-1.81s.81-1.81,1.81-1.81,1.81.81,1.81,1.81-.81,1.81-1.81,1.81ZM124.98,6.72c-.59,0-1.06.48-1.06,1.06s.48,1.06,1.06,1.06,1.06-.48,1.06-1.06-.48-1.06-1.06-1.06Z"/><path d="M173.33,57.07c0,16.09-13.04,29.13-29.13,29.13s-29.13-13.04-29.13-29.13,13.04-29.13,29.13-29.13,29.13,13.04,29.13,29.13ZM171.37,57.08c0-15.02-12.17-27.19-27.19-27.19s-27.19,12.17-27.19,27.19,12.17,27.19,27.19,27.19,27.19-12.17,27.19-27.19h0Z"/><path d="M144.2,86.57c-16.27,0-29.5-13.23-29.5-29.5s13.23-29.5,29.5-29.5,29.5,13.23,29.5,29.5-13.23,29.5-29.5,29.5ZM144.2,28.31c-15.85,0-28.75,12.9-28.75,28.75s12.9,28.75,28.75,28.75,28.75-12.9,28.75-28.75-12.9-28.75-28.75-28.75ZM144.18,84.65c-15.2,0-27.56-12.37-27.56-27.56s12.37-27.56,27.56-27.56,27.56,12.37,27.56,27.56-12.37,27.56-27.56,27.56ZM144.18,30.27c-14.79,0-26.81,12.03-26.81,26.81s12.03,26.81,26.81,26.81,26.81-12.03,26.81-26.81-12.03-26.81-26.81-26.81Z"/><path d="M195.46,11.48v10.01h-22.37c-.94-3.46-.58-6.55,0-10.01h22.37Z" fill="#fff"/><path d="M195.84,21.87h-23.04l-.08-.28c-.98-3.59-.56-6.86,0-10.17l.05-.31h23.07v10.76ZM173.38,21.12h21.71v-9.26h-21.68c-.52,3.14-.85,6.03-.03,9.26Z"/><rect x="173.09" y="23.26" width="22.37" height="1.77" fill="#fff"/><path d="M195.84,25.4h-23.12v-2.52h23.12v2.52ZM173.46,24.65h21.62v-1.02h-21.62v1.02Z"/><rect x="173.09" y="7.95" width="22.37" height="1.77" fill="#fff"/><path d="M195.84,10.09h-23.12v-2.52h23.12v2.52ZM173.46,9.34h21.62v-1.02h-21.62v1.02Z"/><path d="M109.5,19.14h-8.24v-4.71c1.64.28,7.17-.63,7.99.55l.26,4.16Z" fill="#fff"/><path d="M109.9,19.51h-9.02v-5.53l.44.08c.54.09,1.59.04,2.71,0,2.85-.13,4.92-.15,5.52.72l.06.09.29,4.66ZM101.63,18.76h7.47l-.22-3.64c-.56-.52-3.1-.41-4.81-.33-.96.04-1.82.08-2.44.04v3.92Z"/><path d="M143.06,19.13c-.63-.54,2.73-3.79,3.24-4.12,2.04-1.33,1.4,2.13.29,3.23-.86.84-2.37.95-3.52.89Z" fill="#fff"/><path d="M143.59,19.52c-.19,0-.37,0-.55-.02h-.13s-.1-.09-.1-.09c-.15-.13-.22-.32-.21-.53.08-1.14,3.09-3.93,3.48-4.19.96-.63,1.45-.3,1.65-.05.63.79,0,2.97-.9,3.86-.83.81-2.14,1.01-3.26,1.01ZM143.4,18.77c1,.03,2.23-.11,2.92-.8.75-.74,1.12-2.5.84-2.85-.07-.09-.34,0-.66.2-.53.34-2.78,2.64-3.1,3.45Z"/><path d="M145.41,12.67c.7.62-3.52,4.82-4.12,4.12-.43-3.18.89-4.55,4.12-4.12Z" fill="#fff"/><path d="M141.49,17.24c-.26,0-.41-.13-.49-.21l-.07-.08v-.11c-.25-1.74.01-2.96.79-3.73.77-.77,2-1.03,3.74-.8l.11.02.09.08c.11.1.28.32.17.73-.3,1.16-3,3.84-4.12,4.09-.08.02-.15.03-.21.03ZM144.34,12.96c-.94,0-1.64.22-2.08.66-.55.55-.76,1.5-.62,2.83.32-.12,1.06-.6,2.02-1.57.86-.87,1.32-1.56,1.43-1.87-.26-.03-.51-.04-.75-.04Z"/><circle cx="124.98" cy="7.78" r="1.44" fill="#fff"/><path d="M124.98,9.6c-1,0-1.81-.81-1.81-1.81s.81-1.81,1.81-1.81,1.81.81,1.81,1.81-.81,1.81-1.81,1.81ZM124.98,6.72c-.59,0-1.06.48-1.06,1.06s.48,1.06,1.06,1.06,1.06-.48,1.06-1.06-.48-1.06-1.06-1.06Z"/><path d="M171.37,57.08c0,15.02-12.17,27.19-27.19,27.19s-27.19-12.17-27.19-27.19,12.17-27.19,27.19-27.19,27.19,12.17,27.19,27.19h0ZM165.04,57.09c0-11.52-9.34-20.85-20.85-20.85s-20.85,9.34-20.85,20.85,9.34,20.85,20.85,20.85,20.85-9.34,20.85-20.85h0Z" fill="#fff"/><path d="M144.18,84.65c-15.2,0-27.56-12.37-27.56-27.56s12.37-27.56,27.56-27.56,27.56,12.37,27.56,27.56-12.37,27.56-27.56,27.56ZM144.18,30.27c-14.79,0-26.81,12.03-26.81,26.81s12.03,26.81,26.81,26.81,26.81-12.03,26.81-26.81-12.03-26.81-26.81-26.81ZM144.19,78.32c-11.71,0-21.23-9.52-21.23-21.23s9.52-21.23,21.23-21.23,21.23,9.52,21.23,21.23-9.52,21.23-21.23,21.23ZM144.19,36.61c-11.29,0-20.48,9.19-20.48,20.48s9.19,20.48,20.48,20.48,20.48-9.19,20.48-20.48-9.19-20.48-20.48-20.48Z"/><circle cx="93.86" cy="32.75" r="2.57" fill="#fff"/><path d="M93.86,35.69c-1.63,0-2.95-1.32-2.95-2.95s1.32-2.95,2.95-2.95,2.95,1.32,2.95,2.95-1.32,2.95-2.95,2.95ZM93.86,30.55c-1.21,0-2.2.99-2.2,2.2s.99,2.2,2.2,2.2,2.2-.99,2.2-2.2-.99-2.2-2.2-2.2Z"/><path d="M165.04,57.09c0,11.52-9.34,20.85-20.85,20.85s-20.85-9.34-20.85-20.85,9.34-20.85,20.85-20.85,20.85,9.34,20.85,20.85h0ZM163.17,57.1c0-10.48-8.49-18.97-18.97-18.97s-18.97,8.49-18.97,18.97,8.49,18.97,18.97,18.97,18.97-8.49,18.97-18.97Z"/><path d="M144.19,78.32c-11.71,0-21.23-9.52-21.23-21.23s9.52-21.23,21.23-21.23,21.23,9.52,21.23,21.23-9.52,21.23-21.23,21.23ZM144.19,36.61c-11.29,0-20.48,9.19-20.48,20.48s9.19,20.48,20.48,20.48,20.48-9.19,20.48-20.48-9.19-20.48-20.48-20.48ZM144.2,76.44c-10.67,0-19.35-8.68-19.35-19.35s8.68-19.35,19.35-19.35,19.35,8.68,19.35,19.35-8.68,19.35-19.35,19.35ZM144.2,38.5c-10.25,0-18.6,8.34-18.6,18.6s8.34,18.6,18.6,18.6,18.6-8.34,18.6-18.6-8.34-18.6-18.6-18.6Z"/><path d="M163.17,57.1c0,10.48-8.49,18.97-18.97,18.97s-18.97-8.49-18.97-18.97,8.49-18.97,18.97-18.97,18.97,8.49,18.97,18.97ZM145.41,43.86c-.14-3.19-4.81-1.27-6.69-.51-5.85,2.36-9.92,8.17-9.2,14.65h1.76c-.35-8.04,6.09-14.34,14.13-14.14Z" fill="#fff"/><path d="M144.2,76.44c-10.67,0-19.35-8.68-19.35-19.35s8.68-19.35,19.35-19.35,19.35,8.68,19.35,19.35-8.68,19.35-19.35,19.35ZM144.2,38.5c-10.25,0-18.6,8.34-18.6,18.6s8.34,18.6,18.6,18.6,18.6-8.34,18.6-18.6-8.34-18.6-18.6-18.6ZM131.67,58.37h-2.49l-.04-.33c-.7-6.33,3.18-12.52,9.43-15.03,1.72-.69,4.77-1.92,6.32-.92.56.36.85.95.89,1.76l.02.4h-.4c-3.87-.11-7.43,1.31-10.05,3.97-2.54,2.59-3.86,6.06-3.7,9.77l.02.39ZM129.86,57.62h1.03c-.06-3.77,1.32-7.28,3.92-9.93,2.67-2.71,6.26-4.2,10.17-4.21-.08-.35-.24-.6-.5-.77-1.22-.79-4.25.43-5.55.95-5.91,2.38-9.57,8.07-9.08,13.96Z"/><path d="M145.41,43.86c-8.05-.2-14.48,6.09-14.13,14.14h-1.76c-.72-6.48,3.35-12.29,9.2-14.65,1.88-.76,6.55-2.68,6.69.51Z"/><path d="M131.67,58.37h-2.49l-.04-.33c-.7-6.34,3.18-12.52,9.43-15.03,1.72-.69,4.77-1.92,6.32-.92.56.36.85.95.89,1.76l.02.4h-.4c-3.87-.11-7.43,1.31-10.05,3.97-2.54,2.59-3.86,6.06-3.7,9.77l.02.39ZM129.86,57.62h1.03c-.06-3.77,1.32-7.28,3.92-9.93,2.67-2.71,6.26-4.2,10.17-4.21-.08-.35-.24-.6-.5-.77-1.22-.79-4.25.43-5.55.95-5.91,2.38-9.57,8.07-9.08,13.96Z"/></svg>